<!-- Generated by IcoMoon.io -->
<svg version="1.1" xmlns="http://www.w3.org/2000/svg" width="25" height="28" viewBox="0 0 25 28">
<title>thumbs-down</title>
<path d="M4 9c0 0.547-0.453 1-1 1-0.562 0-1-0.453-1-1 0-0.562 0.438-1 1-1 0.547 0 1 0.438 1 1zM6.5 17v-10c0-0.547-0.453-1-1-1h-4.5c-0.547 0-1 0.453-1 1v10c0 0.547 0.453 1 1 1h4.5c0.547 0 1-0.453 1-1zM24.141 14.672c0.531 0.594 0.859 1.5 0.859 2.328-0.016 1.625-1.375 3-3 3h-4.328c0.125 0.5 0.281 0.656 0.453 1 0.406 0.812 0.875 1.719 0.875 3 0 1.203 0 4-3.5 4-0.266 0-0.516-0.109-0.703-0.297-0.672-0.656-0.859-1.625-1.031-2.547-0.187-0.906-0.359-1.844-0.969-2.453-0.484-0.484-1.016-1.156-1.578-1.875-0.688-0.906-2.188-2.766-2.766-2.812-0.516-0.047-0.953-0.484-0.953-1v-10.016c0-0.547 0.469-0.984 1-1 0.547-0.016 1.484-0.344 2.469-0.688 1.687-0.578 3.797-1.313 6.031-1.313h2.016c1.375 0.016 2.406 0.422 3.078 1.219 0.594 0.703 0.859 1.656 0.766 2.828 0.391 0.375 0.688 0.891 0.844 1.469 0.172 0.625 0.172 1.25 0 1.828 0.469 0.625 0.703 1.359 0.672 2.141 0 0.219-0.063 0.688-0.234 1.188z"></path>
</svg>
