<?xml version="1.0" encoding="utf-8"?>
<!-- Generator: Adobe Illustrator 23.0.6, SVG Export Plug-In . SVG Version: 6.00 Build 0)  -->
<svg version="1.1" id="Layer_1" xmlns="http://www.w3.org/2000/svg" xmlns:xlink="http://www.w3.org/1999/xlink" x="0px" y="0px"
	 viewBox="0 0 500 500" style="enable-background:new 0 0 500 500;" xml:space="preserve">
<style type="text/css">
	.st0{fill:url(#SVGID_1_);}
</style>
<linearGradient id="SVGID_1_" gradientUnits="userSpaceOnUse" x1="34.9359" y1="250" x2="465.0641" y2="250">
	<stop  offset="0" style="stop-color:#3E8FBD"/>
	<stop  offset="1" style="stop-color:#6B61AB"/>
</linearGradient>
<path class="st0" d="M61.6,247.8h72.6l-42,44.4h58.1l-18.6,48.4c71,72.6,146.8,87.9,146.8,87.9l0,0l0,0l0,0
	c0-20.2,4.8-98.4,9.7-112.1c2.4-6.5,4.8-12.9,8.9-18.6c10.5-12.9,24.2-17.7,40.3-18.6c16.1-0.8,30.7,3.2,46,8.1
	c8.9,3.2,18.6,4,27.4-1.6c6.5-3.2,12.1-7.3,17.7-11.3c1.6-1.6,4-2.4,6.5-2.4c7.3,0,12.1-2.4,15.3-8.9c1.6-4,4-8.1,6.5-11.3l0,0
	c5.6-10.5,8.9-22.6,8.1-34.7c-0.8-8.9-1.6-17.7-2.4-25.8c0-4.8-1.6-8.1-4.8-12.1c-3.2-4-7.3-7.3-12.1-8.9c-9.7-4-19.4-8.1-29-11.3
	c-13.7-4.8-27.4-10.5-40.3-17.7c-8.9-5.6-13.7-13.7-15.3-23.4c-1.6-12.1-7.3-21-17.7-26.6c-11.3-6.5-23.4-6.5-35.5-4.8
	c-8.9,1.6-17.7,2.4-26.6-0.8c-5.6-1.6-10.5-3.2-16.1-4.8h-0.8l-10.5-3.2c-18.6-5.6-26.6-8.9-57.3-3.2c0,0-50,9.7-84.7,46.8
	l-76.6,80.7h68.6L61.6,247.8z"/>
</svg>
