<!-- Generated by IcoMoon.io -->
<svg version="1.1" xmlns="http://www.w3.org/2000/svg" width="26" height="28" viewBox="0 0 26 28">
<title>book</title>
<path d="M25.609 7.469c0.391 0.562 0.5 1.297 0.281 2.016l-4.297 14.156c-0.391 1.328-1.766 2.359-3.109 2.359h-14.422c-1.594 0-3.297-1.266-3.875-2.891-0.25-0.703-0.25-1.391-0.031-1.984 0.031-0.313 0.094-0.625 0.109-1 0.016-0.25-0.125-0.453-0.094-0.641 0.063-0.375 0.391-0.641 0.641-1.062 0.469-0.781 1-2.047 1.172-2.859 0.078-0.297-0.078-0.641 0-0.906 0.078-0.297 0.375-0.516 0.531-0.797 0.422-0.719 0.969-2.109 1.047-2.844 0.031-0.328-0.125-0.688-0.031-0.938 0.109-0.359 0.453-0.516 0.688-0.828 0.375-0.516 1-2 1.094-2.828 0.031-0.266-0.125-0.531-0.078-0.812 0.063-0.297 0.438-0.609 0.688-0.969 0.656-0.969 0.781-3.109 2.766-2.547l-0.016 0.047c0.266-0.063 0.531-0.141 0.797-0.141h11.891c0.734 0 1.391 0.328 1.781 0.875 0.406 0.562 0.5 1.297 0.281 2.031l-4.281 14.156c-0.734 2.406-1.141 2.938-3.125 2.938h-13.578c-0.203 0-0.453 0.047-0.594 0.234-0.125 0.187-0.141 0.328-0.016 0.672 0.313 0.906 1.391 1.094 2.25 1.094h14.422c0.578 0 1.25-0.328 1.422-0.891l4.688-15.422c0.094-0.297 0.094-0.609 0.078-0.891 0.359 0.141 0.688 0.359 0.922 0.672zM8.984 7.5c-0.094 0.281 0.063 0.5 0.344 0.5h9.5c0.266 0 0.562-0.219 0.656-0.5l0.328-1c0.094-0.281-0.063-0.5-0.344-0.5h-9.5c-0.266 0-0.562 0.219-0.656 0.5zM7.688 11.5c-0.094 0.281 0.063 0.5 0.344 0.5h9.5c0.266 0 0.562-0.219 0.656-0.5l0.328-1c0.094-0.281-0.063-0.5-0.344-0.5h-9.5c-0.266 0-0.562 0.219-0.656 0.5z"></path>
</svg>
