<!-- Generated by IcoMoon.io -->
<svg version="1.1" xmlns="http://www.w3.org/2000/svg" width="24" height="28" viewBox="0 0 24 28">
<title>file-text</title>
<path d="M22.937 7.438c0.156 0.156 0.297 0.344 0.438 0.562h-7.375v-7.375c0.219 0.141 0.406 0.281 0.562 0.438zM15.5 10h8.5v16.5c0 0.828-0.672 1.5-1.5 1.5h-21c-0.828 0-1.5-0.672-1.5-1.5v-25c0-0.828 0.672-1.5 1.5-1.5h12.5v8.5c0 0.828 0.672 1.5 1.5 1.5zM18 21.5v-1c0-0.281-0.219-0.5-0.5-0.5h-11c-0.281 0-0.5 0.219-0.5 0.5v1c0 0.281 0.219 0.5 0.5 0.5h11c0.281 0 0.5-0.219 0.5-0.5zM18 17.5v-1c0-0.281-0.219-0.5-0.5-0.5h-11c-0.281 0-0.5 0.219-0.5 0.5v1c0 0.281 0.219 0.5 0.5 0.5h11c0.281 0 0.5-0.219 0.5-0.5zM18 13.5v-1c0-0.281-0.219-0.5-0.5-0.5h-11c-0.281 0-0.5 0.219-0.5 0.5v1c0 0.281 0.219 0.5 0.5 0.5h11c0.281 0 0.5-0.219 0.5-0.5z"></path>
</svg>
