<svg id="Layer_1" xmlns="http://www.w3.org/2000/svg" viewBox="0 0 380 380"><style>.st1{fill:#191717}</style><path d="M190 18.8c-96.9 0-175.5 78.6-175.5 175.5 0 77.5 50.3 143.3 120 166.5 8.8 1.6 12-3.8 12-8.4 0-4.2-.2-18-.2-32.7C97.5 330.4 87.2 299 87.2 299c-8-20.3-19.5-25.7-19.5-25.7-15.9-10.9 1.2-10.7 1.2-10.7 17.6 1.2 26.9 18.1 26.9 18.1 15.7 26.8 41.1 19.1 51.1 14.6 1.6-11.3 6.1-19.1 11.1-23.5-39-4.4-80-19.5-80-86.7 0-19.2 6.9-34.8 18.1-47.1-1.8-4.4-7.8-22.3 1.7-46.4 0 0 14.7-4.7 48.3 18 14-3.9 29-5.8 43.9-5.9 14.9.1 29.9 2 44 5.9 33.5-22.7 48.2-18 48.2-18 9.6 24.2 3.5 42 1.7 46.4 11.3 12.3 18.1 27.9 18.1 47.1 0 67.4-41.1 82.2-80.1 86.6 6.3 5.4 11.9 16.1 11.9 32.5 0 23.5-.2 42.4-.2 48.2 0 4.7 3.2 10.1 12.1 8.4 69.7-23.2 119.9-89 119.9-166.5-.1-96.9-78.7-175.5-175.6-175.5z" fill-rule="evenodd" clip-rule="evenodd" fill="#191717"/><path class="st1" d="M81 270.8c-.4.9-1.8 1.1-3 .5-1.3-.6-2-1.8-1.6-2.6.4-.9 1.8-1.1 3-.5 1.3.5 2 1.7 1.6 2.6zm-2.2-1.6M88.1 278.7c-.8.8-2.5.4-3.6-.8-1.1-1.2-1.4-2.9-.5-3.6.9-.8 2.4-.4 3.6.8 1.1 1.2 1.4 2.8.5 3.6zm-1.7-1.8M95 288.8c-1.1.7-2.8 0-3.9-1.5-1.1-1.6-1.1-3.4 0-4.2 1.1-.7 2.8-.1 3.9 1.5s1.1 3.5 0 4.2zm0 0M104.5 298.6c-1 1.1-3 .8-4.5-.7-1.5-1.4-2-3.4-1-4.5s3-.8 4.5.7c1.5 1.4 2 3.5 1 4.5zm0 0M117.6 304.3c-.4 1.4-2.4 2-4.4 1.4-2-.6-3.3-2.2-2.9-3.6.4-1.4 2.4-2 4.4-1.4 2 .6 3.3 2.2 2.9 3.6zm0 0M131.9 305.3c0 1.4-1.6 2.6-3.7 2.7-2.1 0-3.8-1.1-3.8-2.5 0-1.5 1.6-2.6 3.7-2.7 2.1-.1 3.8 1.1 3.8 2.5zm0 0M145.3 303.1c.2 1.4-1.2 2.9-3.3 3.2-2 .4-3.9-.5-4.2-1.9-.3-1.4 1.2-2.9 3.3-3.3 2.1-.3 3.9.5 4.2 2zm0 0"/></svg>