<svg xmlns="http://www.w3.org/2000/svg" viewBox="0 0 500 500"><defs><style>.cls-1{fill:#333;}.cls-2{fill:#fff;}</style></defs><title>mdn-auth</title><g id="Layer_2" data-name="Layer 2"><circle class="cls-1" cx="250" cy="250" r="245.89"/></g><g id="Layer_3" data-name="Layer 3"><path class="cls-2" d="M78.7,258h66l-38.16,40.34H159.3l-16.9,44c64.52,66,133.4,79.87,133.4,79.87h0c0-18.35,4.36-89.42,8.81-101.86,2.18-5.91,4.37-11.73,8.09-16.91,9.54-11.72,22-16.08,36.62-16.9s27.9,2.91,41.8,7.36c8.09,2.91,16.9,3.64,24.9-1.45,5.91-2.91,11-6.64,16.09-10.27A8.32,8.32,0,0,1,418,280c6.64,0,11-2.18,13.91-8.09a43.91,43.91,0,0,1,5.9-10.27h0c5.09-9.54,8.09-20.53,7.36-31.53-.72-8.09-1.45-16.08-2.18-23.44,0-4.37-1.45-7.37-4.36-11a24.2,24.2,0,0,0-11-8.09c-8.81-3.63-17.62-7.36-26.35-10.27a233.31,233.31,0,0,1-36.62-16.08A29.74,29.74,0,0,1,350.77,140c-1.46-11-6.64-19.09-16.09-24.18-10.26-5.9-21.26-5.9-32.26-4.36-8.08,1.46-16.08,2.18-24.17-.73-5.09-1.45-9.54-2.9-14.63-4.36h-.72l-9.55-2.9c-16.9-5.09-24.17-8.09-52.07-2.91,0,0-45.43,8.81-77,42.53L54.71,216.37h62.34Z"/></g></svg>