<svg id="Layer_1" data-name="Layer 1" xmlns="http://www.w3.org/2000/svg" viewBox="0 0 216.02 47.96"><defs><style>.cls-1{fill:#010101;}</style></defs><title>mdn-web-docs-full</title><path class="cls-1" d="M48,30.49h59.91V47.62H48Zm57.23,12.3a1.19,1.19,0,0,1-.32.05c-.34,0-.51-.15-.51-.58V39c0-1.71-1.35-2.54-3-2.54a7.13,7.13,0,0,0-3.21.67L98,38.86l1.71.18.25-.84a2.35,2.35,0,0,1,1.14-.22c1.22,0,1.23.91,1.23,1.69v.24a9.92,9.92,0,0,0-1.23-.07c-1.71,0-3.49.43-3.49,2.27a2.11,2.11,0,0,0,2.31,2.15,2.69,2.69,0,0,0,2.41-1.5,1.53,1.53,0,0,0,1.65,1.5,2.88,2.88,0,0,0,1.35-.34Zm-4.61,0a.79.79,0,0,1-.88-.87c0-.81.68-1,1.44-1a7.6,7.6,0,0,1,1.07.09,1.66,1.66,0,0,1-1.63,1.79Zm-5-10.08L92.42,44.1h2.11l3.25-11.43Zm-4.35,0L88.07,44.1h2.11l3.24-11.44Zm-6.89,6.65h2.24V36.6H84.42Zm0,4.8h2.24v-2.7H84.42ZM80.8,42.47H78.38l4.15-4.73-.16-1.13H75.79l-.27,2.63,1.54.16.34-1.16h2.34L75.62,43l.22,1.13h6.54l.47-2.63-1.69-.16Zm-10.38-6a3.75,3.75,0,0,0-4,4,3.6,3.6,0,0,0,3.9,3.8,3.81,3.81,0,0,0,4.13-3.9,3.72,3.72,0,0,0-4-3.91Zm-.06,6.16c-1.16,0-1.76-1-1.76-2.29s.68-2.23,1.78-2.23,1.83.67,1.83,2.19-.73,2.33-1.85,2.33ZM64.46,39a2.42,2.42,0,0,0-2.58-2.59,2.52,2.52,0,0,0-2.44,1.61A2.42,2.42,0,0,0,57,36.45a2.48,2.48,0,0,0-2.28,1.28V36.6H51.58v1.63h1v4.24h-1V44.1h4.57V42.47H54.72V39.86c0-1,.43-1.78,1.45-1.78.84,0,1.28.51,1.28,1.8v4.23h3.14V42.48h-1V39.86c0-1,.43-1.78,1.45-1.78.84,0,1.28.51,1.28,1.8v4.21h3.14V42.46h-1Zm78.79-22.39H137c.23-1.93,1.16-3.55,3.27-3.55a3,3,0,0,1,3,3.55Zm74-17V28.8H48V-.34ZM70,6.55H66.13L59.79,19.67h-.11L53.16,6.55H49.32V8.2h2.19V21.64H49.4v1.65h5.92V21.64h-2V10.9h.1l5.75,11.56h1L65.8,11h.1V21.64h-2v1.65h5.94V21.64H67.79V8.2H70ZM80,23.31c5.29,0,8.49-3.48,8.49-8.42s-3.1-8.35-8.56-8.35H72.4V8.16h2.11V21.69H72.4v1.62ZM107,6.55H100.6V8.2h2.52V19.47H103L93.49,6.55H89.88V8.2H92.1V21.64H90.16v1.65h6.39V21.64H93.89V10.11H94l9.72,13.2h1.21V8.2H107Zm26.71,5.29h-5.15v1.47h1.83l-1.86,7.24h-.13l-3.58-8.71h-1.21l-3.43,8.72h-.12l-2.14-7.25h1.93V11.84h-5.41v1.47H116l3.25,10h1.35L124,14.54h.13l3.49,8.77H129l3.12-10h1.57Zm6.71,11.73c2.84,0,4.51-1.59,4.83-3.57l-1.52-.34A3,3,0,0,1,140.58,22c-2.29,0-3.53-1.47-3.64-4H145a6.23,6.23,0,0,0,.15-1.36,4.73,4.73,0,0,0-4.87-5c-3.25,0-5.26,2.58-5.26,6.14,0,3.72,2.16,5.83,5.41,5.83Zm13.41,0c3.66,0,5.13-3.25,5.13-6.3,0-3.64-2.06-5.67-4.92-5.67a4.29,4.29,0,0,0-4.1,2.61V5.57h-3.53V7h1.69V20a22,22,0,0,1-.34,3.35h1.81c0-.12.23-1.78.23-1.9a4.37,4.37,0,0,0,4,2.16ZM180,21.84h-2V5.57h-4.6V7h2.8v6.65a4.22,4.22,0,0,0-3.84-2.09c-3.74,0-5.19,3.2-5.19,6.27,0,3.58,2,5.7,4.93,5.7a4.56,4.56,0,0,0,4.1-2.58v2.32H180Zm7,1.73c3.53,0,5.75-2.53,5.74-6,0-3.25-1.93-6-5.65-6s-5.67,2.73-5.67,6.09,2.09,5.9,5.57,5.9Zm12.94,0a4.63,4.63,0,0,0,4.87-4.12l-1.55-.34C202.93,21,202,22,200.17,22c-2.27,0-3.5-1.64-3.5-4.4,0-2.47,1-4.48,3.43-4.48a4.41,4.41,0,0,1,2.45.64l.42,1.94,1.49-.18L204,12.79a6.13,6.13,0,0,0-3.92-1.19c-3.55,0-5.36,3-5.36,6.14,0,3.69,2,5.83,5.21,5.83Zm11.17,0c2.76,0,4.87-1.34,4.84-3.6,0-4.56-7.1-2.19-7.1-5.18,0-1.18,1-1.69,2.48-1.69a4.83,4.83,0,0,1,2.36.56l.27,1.87,1.5-.18-.29-2.68a8.1,8.1,0,0,0-4-1.06c-2.09,0-4.26.9-4.26,3.33,0,4.46,7.19,2.06,7.19,5.2,0,1.32-1.49,1.94-3.09,1.94a5.76,5.76,0,0,1-2.55-.57l.07-1.52-1.44-.16-.36,2.61a8.71,8.71,0,0,0,4.36,1.13Zm-54.05-6.11c0,2.37-1,4.56-3.58,4.56A3.46,3.46,0,0,1,150,18.56V16.84a3.79,3.79,0,0,1,3.63-3.69c1.95,0,3.48,1.44,3.48,4.31Zm19.18-1.06v1.83A4,4,0,0,1,172.62,22c-2,0-3.48-1.47-3.48-4.28,0-2.43,1.13-4.59,3.69-4.59a3.36,3.36,0,0,1,3.43,3.25Zm14.6,1.13c0,2.58-1.34,4.49-3.79,4.49s-3.74-2-3.74-4.46,1.34-4.44,3.74-4.44,3.79,1.78,3.79,4.41ZM86.46,14.94c0,4.16-2.32,6.76-6.57,6.76H76.41V8.17h3.46c4.26,0,6.58,2.71,6.59,6.77ZM-1.61-.34h48v48h-48Zm41.9,22c0-.72-.12-1.44-.17-2.16a1.77,1.77,0,0,0-.4-1,2.46,2.46,0,0,0-1-.74c-.8-.32-1.62-.67-2.43-1a20.66,20.66,0,0,1-3.34-1.47,2.64,2.64,0,0,1-1.3-2,2.94,2.94,0,0,0-1.47-2.23,4.06,4.06,0,0,0-3-.35,4.43,4.43,0,0,1-2.23,0l-1.11-.34-.3-.09-.87-.26A8,8,0,0,0,17.9,9.8a14.72,14.72,0,0,0-7.09,3.9L4.44,20.46h5.72l-3.5,3.71h6L9.18,27.88H14l-1.55,4.06a25.84,25.84,0,0,0,12.25,7.29c0-1.67.38-8.24.82-9.34a5.3,5.3,0,0,1,.77-1.54,4.18,4.18,0,0,1,3.39-1.54,10.54,10.54,0,0,1,3.81.7,2.64,2.64,0,0,0,2.28-.12c.51-.3,1-.62,1.5-.94a.8.8,0,0,1,.56-.18,1.24,1.24,0,0,0,1.27-.74c.16-.33.35-.64.52-1a5.43,5.43,0,0,0,.63-2.88Z"/></svg>